<?xml version="1.0" encoding="UTF-8" standalone="no"?>
<svg
   xmlns:dc="http://purl.org/dc/elements/1.1/"
   xmlns:cc="http://creativecommons.org/ns#"
   xmlns:rdf="http://www.w3.org/1999/02/22-rdf-syntax-ns#"
   xmlns:svg="http://www.w3.org/2000/svg"
   xmlns="http://www.w3.org/2000/svg"
   xmlns:xlink="http://www.w3.org/1999/xlink"
   xmlns:sodipodi="http://sodipodi.sourceforge.net/DTD/sodipodi-0.dtd"
   xmlns:inkscape="http://www.inkscape.org/namespaces/inkscape"
   contentScriptType="text/ecmascript"
   zoomAndPan="magnify"
   contentStyleType="text/css"
   version="1.1"
   width="44px"
   preserveAspectRatio="xMidYMid meet"
   viewBox="0 0 44 44"
   height="44px"
   x="0px"
   y="0px"
   id="svg2"
   inkscape:version="0.48.0 r9654"
   sodipodi:docname="info">
  <metadata
     id="metadata36">
    <rdf:RDF>
      <cc:Work
         rdf:about="">
        <dc:format>image/svg+xml</dc:format>
        <dc:type
           rdf:resource="http://purl.org/dc/dcmitype/StillImage" />
        <dc:title></dc:title>
      </cc:Work>
    </rdf:RDF>
  </metadata>
  <defs
     id="defs34">
    <linearGradient
       id="linearGradient3797">
      <stop
         style="stop-color:#ddeded;stop-opacity:0.91071427;"
         offset="0"
         id="stop3799" />
      <stop
         style="stop-color:#ebebeb;stop-opacity:0;"
         offset="1"
         id="stop3801" />
    </linearGradient>
    <linearGradient
       xlink:show="other"
       id="SVGID_1_"
       xlink:actuate="onLoad"
       xlink:type="simple"
       y2="-944.4863"
       gradientUnits="userSpaceOnUse"
       x2="466.6563"
       y1="-916.4038"
       gradientTransform="matrix(1,0,0,-1,-444.0059,-907.0117)"
       x1="466.6563">
      <stop
         id="stop15"
         offset="0"
         stop-color="#ebebeb"
         style="stop-color:#dfe8eb;stop-opacity:0.96428573;" />
      <stop
         id="stop17"
         offset="1"
         stop-color="#cfc9c2"
         style="stop-color:#c8ddf1;stop-opacity:1;" />
    </linearGradient>
    <linearGradient
       xlink:show="other"
       id="SVGID_2_"
       xlink:actuate="onLoad"
       xlink:type="simple"
       y2="12.4185"
       gradientUnits="userSpaceOnUse"
       x2="22.9004"
       y1="28.0107"
       x1="22.9004">
      <stop
         id="stop24"
         offset="0"
         stop-color="#ebebeb" />
      <stop
         id="stop26"
         offset="1"
         stop-color="#cfc9c2" />
    </linearGradient>
    <linearGradient
       inkscape:collect="always"
       xlink:href="#SVGID_2_"
       id="linearGradient3021"
       gradientUnits="userSpaceOnUse"
       x1="22.9004"
       y1="28.0107"
       x2="22.9004"
       y2="12.4185" />
    <linearGradient
       inkscape:collect="always"
       xlink:href="#SVGID_1_"
       id="linearGradient3025"
       gradientUnits="userSpaceOnUse"
       gradientTransform="matrix(1,0,0,-1,-444.0059,-907.0117)"
       x1="466.6563"
       y1="-916.4038"
       x2="466.6563"
       y2="-944.4863" />
    <linearGradient
       inkscape:collect="always"
       xlink:href="#linearGradient3797"
       id="linearGradient3803"
       x1="23.136833"
       y1="20.8533"
       x2="23.174664"
       y2="8.7153702"
       gradientUnits="userSpaceOnUse" />
    <linearGradient
       inkscape:collect="always"
       xlink:href="#SVGID_1_"
       id="linearGradient3813"
       gradientUnits="userSpaceOnUse"
       gradientTransform="matrix(1,0,0,-1,-444.0059,-907.0117)"
       x1="466.6563"
       y1="-916.4038"
       x2="466.6563"
       y2="-944.4863" />
    <linearGradient
       inkscape:collect="always"
       xlink:href="#linearGradient3797"
       id="linearGradient3815"
       gradientUnits="userSpaceOnUse"
       x1="23.136833"
       y1="20.8533"
       x2="23.174664"
       y2="8.7153702" />
    <linearGradient
       inkscape:collect="always"
       xlink:href="#SVGID_2_"
       id="linearGradient3817"
       gradientUnits="userSpaceOnUse"
       x1="22.9004"
       y1="28.0107"
       x2="22.9004"
       y2="12.4185" />
  </defs>
  <sodipodi:namedview
     pagecolor="#ffffff"
     bordercolor="#666666"
     borderopacity="1"
     objecttolerance="10"
     gridtolerance="10"
     guidetolerance="10"
     inkscape:pageopacity="0"
     inkscape:pageshadow="2"
     inkscape:window-width="1280"
     inkscape:window-height="738"
     id="namedview32"
     showgrid="false"
     inkscape:zoom="5.9318182"
     inkscape:cx="22"
     inkscape:cy="22"
     inkscape:window-x="-8"
     inkscape:window-y="-8"
     inkscape:window-maximized="1"
     inkscape:current-layer="svg2" />
  <g
     id="g4">
    <rect
       width="44"
       fill="none"
       height="44"
       id="rect6" />
  </g>
  <g
     id="g3805"
     transform="matrix(1.3664416,0,0,1.3664416,-8.4999201,-8.7674441)"
     inkscape:export-filename="E:\Documents\ProgramovanieProgramyAskripty\Symphaty0.4Dev\info.png"
     inkscape:export-xdpi="90"
     inkscape:export-ydpi="90">
    <path
       sodipodi:nodetypes="cssccssscc"
       d="m 8.133,23.979 0,5.921 c 0,1.521 1.245,2.764 2.764,2.764 l 1.247,0 6.168,0.002 16.09,0 c 1.521,0 2.766,-1.240999 2.766,-2.764999 l 0,-5.922001 c 0,-0.004 0,-0.008 0,-0.015 z"
       id="path10"
       inkscape:connector-curvature="0"
       style="fill-opacity:0.5;stroke-opacity:0.5" />
    <path
       sodipodi:nodetypes="ccccccccccc"
       d="m 34.402,9.394 -23.505,0 C 8.8,9.396 7.099,11.095 7.0940003,13.194 l 0.003,16.588 c 10e-4,2.101999 1.701,3.801 3.7999997,3.803 l 0.209,0 7.692001,0.002 15.604,0 c 2.098,-0.003 3.797,-1.701998 3.798,-3.804 l 0.004,-16.589 C 38.2,11.097 36.498,9.396 34.402,9.394 z"
       id="path12"
       inkscape:connector-curvature="0"
       style="fill:#000000;fill-opacity:0.08771931;stroke-opacity:0.2" />
    <path
       sodipodi:nodetypes="ssssccsscs"
       d="m 34.402,9.392 -23.505,0 c -1.519999,0 -2.764,1.243 -2.764,2.765001 l 0,16.591999 c 0,1.524 1.245,2.765 2.764,2.765 l 7.415,0.002 16.09,0 c 1.521,0 2.766,-1.24 2.766,-2.766001 l 0,-16.594002 C 37.167,10.635 35.923,9.392 34.402,9.392 z"
       id="path19"
       style="fill:url(#linearGradient3813)"
       inkscape:connector-curvature="0" />
    <path
       d="m 37.167,20.851 0,-8.764 c 0,-1.483 -1.244,-2.695 -2.765,-2.695 l -23.505,0 c -1.519999,0 -2.764,1.212 -2.764,2.695 l 0,8.764 29.034,0 z"
       id="path21"
       inkscape:connector-curvature="0"
       style="fill:url(#linearGradient3815);fill-opacity:1" />
    <path
       d="m 24.462,14.907 0,0 0.997,-0.022 c -0.01,-0.652 -0.261,-1.293999 -0.732,-1.755 -0.471001,-0.465 -1.138001,-0.718 -1.834,-0.712 -0.684,-0.004 -1.345,0.236 -1.815,0.689 -0.477,0.45 -0.738002,1.101 -0.734,1.761 0,0.017 10e-4,0.03 10e-4,0.041 0,0.025 9.99e-4,0.035 0,0.036 -0.004,0.59 0.211,1.162 0.594,1.597 l -0.516002,0 0,11.469 1,0 3.944001,-10e-4 0,-11.469 -0.516999,0 c 0.396,-0.445999 0.613001,-1.033 0.609,-1.633999 l -0.997,0 z"
       id="path28"
       style="fill:url(#linearGradient3817)"
       inkscape:connector-curvature="0" />
    <path
       d="m 24.462,14.909 c 0,0.813 -0.619,1.472 -1.588,1.472 -0.929,0 -1.549,-0.657999 -1.53,-1.472 -0.019,-0.852 0.601,-1.489999 1.548,-1.489999 0.951,-10e-4 1.549,0.637999 1.57,1.489999 z m -3.04,12.103 0,-9.469 2.943002,0 0,9.469 -2.943002,0 z"
       id="path30"
       inkscape:connector-curvature="0" />
  </g>
</svg>
