/* XPM */
static char * symphaty1_xpm[] = {
"32 32 217 2",
"  	c None",
". 	c #C8DDF5",
"+ 	c #CFE1F6",
"@ 	c #D6E5F8",
"# 	c #D8E6F9",
"$ 	c #DAE7F9",
"% 	c #DDEAF9",
"& 	c #DFEBFA",
"* 	c #E3EEFA",
"= 	c #E3EDFA",
"- 	c #DAE8F8",
"; 	c #C9DDF5",
"> 	c #CDDFF6",
", 	c #CEE0F6",
"' 	c #D0E1F6",
") 	c #D2E3F8",
"! 	c #D4E4F8",
"~ 	c #D9E6F9",
"{ 	c #DBE8F9",
"] 	c #E1ECFA",
"^ 	c #E4EEFA",
"/ 	c #C5DAF4",
"( 	c #C6DBF5",
"_ 	c #C7DCF5",
": 	c #CADEF5",
"< 	c #CCDFF6",
"[ 	c #D0E2F6",
"} 	c #D9E7F9",
"| 	c #DCE8F9",
"1 	c #DEEAF9",
"2 	c #E0ECFA",
"3 	c #E1EDFA",
"4 	c #D8E7F8",
"5 	c #C2D9F4",
"6 	c #BFD7F3",
"7 	c #C1D8F4",
"8 	c #C3D9F4",
"9 	c #C5DBF4",
"0 	c #CBDEF5",
"a 	c #D1E2F6",
"b 	c #D3E3F8",
"c 	c #D5E4F8",
"d 	c #D7E6F8",
"e 	c #DCE9F9",
"f 	c #DEEBF9",
"g 	c #E2EDFA",
"h 	c #BDD6F3",
"i 	c #BAD4F3",
"j 	c #BBD5F3",
"k 	c #BED6F3",
"l 	c #D2E3F7",
"m 	c #E6F0FB",
"n 	c #E5EFFB",
"o 	c #D7E6F9",
"p 	c #B4D0F3",
"q 	c #B6D1F3",
"r 	c #B9D2F3",
"s 	c #D3E4F8",
"t 	c #E6EFFB",
"u 	c #DBE7F5",
"v 	c #D6E5F7",
"w 	c #D5E5F8",
"x 	c #D5E5F7",
"y 	c #DAE8F9",
"z 	c #B8D3F2",
"A 	c #B0CDF2",
"B 	c #B0CEF2",
"C 	c #B2CFF2",
"D 	c #BCD5F3",
"E 	c #D1E3F7",
"F 	c #AAB8C9",
"G 	c #BDD1E8",
"H 	c #D9E8F9",
"I 	c #B8D2F3",
"J 	c #BBD4F3",
"K 	c #AEC0D5",
"L 	c #B1C3D8",
"M 	c #B6D1F2",
"N 	c #DBE9F9",
"O 	c #B3D0F2",
"P 	c #B1C7E2",
"Q 	c #A5B5C7",
"R 	c #B2C4D9",
"S 	c #A3ACB8",
"T 	c #C0D5EE",
"U 	c #C8DCF5",
"V 	c #B1CEF2",
"W 	c #CDDFF7",
"X 	c #A5C7EF",
"Y 	c #A4C6EF",
"Z 	c #A9C9F1",
"` 	c #ABC2DE",
" .	c #9AA7B9",
"..	c #97A0AB",
"+.	c #8A8B8D",
"@.	c #B0C1D6",
"#.	c #C4DAF4",
"$.	c #D8E6F8",
"%.	c #A9C8F0",
"&.	c #ADCCF1",
"*.	c #A1C4EE",
"=.	c #78ABE8",
"-.	c #77AAE7",
";.	c #72A2DD",
">.	c #466081",
",.	c #7493B7",
"'.	c #8694A5",
").	c #B7D1F3",
"!.	c #AFC6E1",
"~.	c #A3B3C5",
"{.	c #BCD4F1",
"].	c #DDE9F9",
"^.	c #B2CFF1",
"/.	c #A2C5EF",
"(.	c #8CB7EB",
"_.	c #7AACE8",
":.	c #A2C5EE",
"<.	c #D0E1F7",
"[.	c #77AAE6",
"}.	c #3E5979",
"|.	c #72A2DC",
"1.	c #3E5570",
"2.	c #CDE0F6",
"3.	c #89B5EA",
"4.	c #B2CEF2",
"5.	c #5A81AF",
"6.	c #618BBD",
"7.	c #3A516F",
"8.	c #79ACE8",
"9.	c #9DC2EE",
"0.	c #ACC5E3",
"a.	c #C0D7F4",
"b.	c #CBDFF6",
"c.	c #78ABE7",
"d.	c #D2E2F7",
"e.	c #49698E",
"f.	c #76A8E6",
"g.	c #38506E",
"h.	c #5F89BA",
"i.	c #334862",
"j.	c #5D6978",
"k.	c #79ABE8",
"l.	c #93BBEC",
"m.	c #6C9BD4",
"n.	c #6C9AD2",
"o.	c #18222E",
"p.	c #456286",
"q.	c #73A4DF",
"r.	c #3A526E",
"s.	c #B2CDED",
"t.	c #B9D4F3",
"u.	c #CBDFF7",
"v.	c #39516F",
"w.	c #A0C4EE",
"x.	c #96A8BD",
"y.	c #B3CFF2",
"z.	c #7BADE8",
"A.	c #9FC1E9",
"B.	c #95A8BE",
"C.	c #B8D3F3",
"D.	c #88B5EA",
"E.	c #81B0E9",
"F.	c #76A9E7",
"G.	c #456283",
"H.	c #97B9E4",
"I.	c #AACAF0",
"J.	c #7FAFE9",
"K.	c #84B2EA",
"L.	c #8AB5EB",
"M.	c #6E9CD5",
"N.	c #73A3DF",
"O.	c #638DC1",
"P.	c #3F5A7A",
"Q.	c #6590C4",
"R.	c #AECDF2",
"S.	c #8FB9EB",
"T.	c #8EB9EB",
"U.	c #8EB7EB",
"V.	c #709FD9",
"W.	c #213041",
"X.	c #344B66",
"Y.	c #334963",
"Z.	c #567BA7",
"`.	c #93BCEC",
" +	c #CEE0F7",
".+	c #73A4DE",
"++	c #2C3E55",
"@+	c #405C7E",
"#+	c #7DAEE8",
"$+	c #8CB6EB",
"%+	c #C4DAF5",
"&+	c #77A9E6",
"*+	c #9FC3EE",
"=+	c #91BAEC",
"-+	c #7CADE8",
";+	c #83B2E9",
">+	c #A3C5EF",
",+	c #7EAEE8",
"'+	c #78AAE7",
")+	c #82B1E9",
"!+	c #94BCEC",
"~+	c #96BEED",
"{+	c #B0CEF1",
"]+	c #9EC3EE",
"^+	c #96BDED",
"/+	c #95BDEC",
"(+	c #88A7CB",
"_+	c #A6C7EF",
":+	c #B4D0F2",
"<+	c #AFCDF2",
"[+	c #8EB8EB",
"}+	c #86B3EA",
"|+	c #ABCBF0",
"1+	c #89B6EA",
"2+	c #8DB8EB",
"3+	c #7EAFE9",
"4+	c #8AB6EB",
"                                                                ",
"                      . + @ # $ % & * = -                       ",
"                  ; > , ' ) ! @ ~ { % & ] ^ =                   ",
"              / ( _ ; : < , [ ) ! @ } | 1 2 3 ^ 4               ",
"            5 6 7 8 9 _ ; 0 > + a b c d $ e f 2 g f             ",
"          h i j k 6 7 ( l 1 ^ m m n ] { d o $ % & ] 1           ",
"        i p q r i h s n t u v w x y & t n 1 @ ~ { % & {         ",
"      z A B C p D f n E 7 F G / _ ; : , H ^ g d @ } | 1 a       ",
"      C A A A I ] % h i J K L 7 8 9 _ ; 0 + & 3 w w d $ %       ",
"    M A A A C % N p O q I P Q k R S T ( U : > % & l ! @ o +     ",
"    V A A A W * C X Y Z C `  .i ..+.@.5 #.( . < 1 $.' ) ! @     ",
"  %.A A &.Y | *.=.-.-.;.>.,.'.).!.~.{.6 7 5 / _ [ ]., , [ ) J   ",
"  ^./.(._.:.<._.-.-.[.}.|.-.1.X q I i J h 6 7 8 ( ~ a 0 2.+ >   ",
"  3.-.-.-.6 4.-.-.-.5.6.-.-.7.8.9.0.q I i j k a.5 <.b U : b.'   ",
"  _.-.-.c.d.9.-.-.-.e.f.-.-.g.h.i.j.C p ).r i D k U ! #.( . b.  ",
"  k.-.-.k.$ l.-.-.-.m.[.-.n.o.p.q.r.9.V C s.I t.i 7 u.7 8 / U   ",
"  k.-.-.k.$ l.-.-.-.-.-.-.[.q.-.-.v.k.w.A x.y.q I 6 + k 6 7 h   ",
"  z.-.-.c.d.9.-.-.-.-.-.-.-.-.-.-.v.-._.A.B.B V O 6 < i j C.D.  ",
"  E.-.-.-.6 4.-.-.-.-.-.-.-.-.-.-.v.-.F.G.H.A A B 7 9 ).I.J.K.  ",
"  L.-.-.-.:.<._.-.-.-.-.-.M.N.-.-.v.O.P.Q.-.D.:.R._ V S.=.-.T.  ",
"  U.-.-.-.J.c 9.-.-.-.-.V.W.X.-.-.Y.Z.f.-.-.-.-.(.Y z.-.-.-.`.  ",
"    z.-.-.-.Z  +E.-.-.-..+++@+-.-.v.-.-.-.-.-.#+Y S.-.-.-.#+    ",
"    $+-.-.-.z.%+a.#+-.-.-.&+-.-.-.v.-.-.-.-._.*+*+k.-.-.-.=+    ",
"      -+-.-.-.;+. 6 ;+-.-.-.-.-.-.v.-.-.-.J.>+X ,+-.-.-.#+      ",
"      =+'+-.-.-.)+6 ; *.#+-.-.-.-.v.-.-+!+&.>+,+-.-.-.c.~+      ",
"        L.-.-.-.-._.*.( ( {+]+^+/+(+_+:+<+`.k.-.-.-.-.[+        ",
"          }+-.-.-.-.-.-+^+|+C.j i 4./.S._.-.-.-.-.-.1+          ",
"            1+c.-.-.-.-.-.-.-.-.-.-.-.-.-.-.-.-.c.2+            ",
"              =+#+-.-.-.-.-.-.-.-.-.-.-.-.-.-.,+/+              ",
"                  (.#+-.-.-.-.-.-.-.-.-.-.,+S.                  ",
"                      l.1+)+3+-+-+3+;+4+/+                      ",
"                                                                "};
