<?xml version="1.0" encoding="UTF-8" standalone="no"?>
<svg
   xmlns:dc="http://purl.org/dc/elements/1.1/"
   xmlns:cc="http://creativecommons.org/ns#"
   xmlns:rdf="http://www.w3.org/1999/02/22-rdf-syntax-ns#"
   xmlns:svg="http://www.w3.org/2000/svg"
   xmlns="http://www.w3.org/2000/svg"
   xmlns:xlink="http://www.w3.org/1999/xlink"
   xmlns:sodipodi="http://sodipodi.sourceforge.net/DTD/sodipodi-0.dtd"
   xmlns:inkscape="http://www.inkscape.org/namespaces/inkscape"
   contentScriptType="text/ecmascript"
   zoomAndPan="magnify"
   contentStyleType="text/css"
   version="1.1"
   width="44px"
   preserveAspectRatio="xMidYMid meet"
   viewBox="0 0 44 44"
   height="44px"
   x="0px"
   y="0px"
   id="svg2"
   inkscape:version="0.48.0 r9654"
   sodipodi:docname="word.svg">
  <metadata
     id="metadata210">
    <rdf:RDF>
      <cc:Work
         rdf:about="">
        <dc:format>image/svg+xml</dc:format>
        <dc:type
           rdf:resource="http://purl.org/dc/dcmitype/StillImage" />
        <dc:title></dc:title>
      </cc:Work>
    </rdf:RDF>
  </metadata>
  <defs
     id="defs208">
    <linearGradient
       xlink:show="other"
       id="SVGID_1_"
       xlink:actuate="onLoad"
       xlink:type="simple"
       y2="2404.3291"
       gradientUnits="userSpaceOnUse"
       x2="724.04492"
       y1="2372.874"
       gradientTransform="matrix(1,-7.399114e-5,7.399114e-5,1,-702.5742,-2367.8174)"
       x1="724.04492">
      <stop
         id="stop29"
         offset="0"
         stop-color="#ffe600" />
      <stop
         id="stop31"
         offset="1"
         stop-color="#ffb51f" />
    </linearGradient>
    <linearGradient
       xlink:show="other"
       id="SVGID_2_"
       xlink:actuate="onLoad"
       xlink:type="simple"
       y2="2376.0947"
       gradientUnits="userSpaceOnUse"
       x2="736.82129"
       y1="2376.0947"
       gradientTransform="matrix(1,-7.399114e-5,7.399114e-5,1,-702.5742,-2367.8174)"
       x1="729.46002">
      <stop
         id="stop56"
         offset="0"
         stop-color="#ffe600" />
      <stop
         id="stop58"
         offset="1"
         stop-color="#ffb51f" />
    </linearGradient>
    <linearGradient
       inkscape:collect="always"
       xlink:href="#SVGID_2_-3"
       id="linearGradient3171"
       gradientUnits="userSpaceOnUse"
       gradientTransform="matrix(1,0,0,-1,-268.002,-1083.5049)"
       x1="289.60449"
       y1="-1091.9277"
       x2="286.63669"
       y2="-1091.9277" />
    <linearGradient
       xlink:show="other"
       id="SVGID_2_-3"
       xlink:actuate="onLoad"
       xlink:type="simple"
       y2="-1091.9277"
       gradientUnits="userSpaceOnUse"
       x2="286.63669"
       y1="-1091.9277"
       gradientTransform="matrix(1,0,0,-1,-268.002,-1083.5049)"
       x1="289.60449">
      <stop
         id="stop22"
         offset="0"
         stop-color="#e3e3e3" />
      <stop
         id="stop24"
         offset="1"
         stop-color="#999e9e" />
    </linearGradient>
    <linearGradient
       inkscape:collect="always"
       xlink:href="#SVGID_3_"
       id="linearGradient3168"
       gradientUnits="userSpaceOnUse"
       gradientTransform="matrix(1,0,0,-1,-268.002,-1083.5049)"
       x1="289.96289"
       y1="-1089.9941"
       x2="286.2764"
       y2="-1089.9941" />
    <linearGradient
       xlink:show="other"
       id="SVGID_3_"
       xlink:actuate="onLoad"
       xlink:type="simple"
       y2="-1089.9941"
       gradientUnits="userSpaceOnUse"
       x2="286.2764"
       y1="-1089.9941"
       gradientTransform="matrix(1,0,0,-1,-268.002,-1083.5049)"
       x1="289.96289">
      <stop
         id="stop29-4"
         offset="0"
         stop-color="#8e8e8e" />
      <stop
         id="stop31-7"
         offset="1"
         stop-color="#353535" />
    </linearGradient>
    <linearGradient
       xlink:show="other"
       id="SVGID_4_"
       xlink:actuate="onLoad"
       xlink:type="simple"
       y2="-1278.7837"
       gradientUnits="userSpaceOnUse"
       x2="-1128.8345"
       y1="-1278.7837"
       gradientTransform="matrix(0.5083,-0.8612,-0.8612,-0.5083,-519.1061,-1606.1514)"
       x1="-1126.5815">
      <stop
         id="stop36"
         offset="0"
         stop-color="#e3e3e3" />
      <stop
         id="stop38"
         offset="1"
         stop-color="#999e9e" />
    </linearGradient>
    <linearGradient
       xlink:show="other"
       id="SVGID_5_"
       xlink:actuate="onLoad"
       xlink:type="simple"
       y2="-1278.2432"
       gradientUnits="userSpaceOnUse"
       x2="-1129.1055"
       y1="-1278.2432"
       gradientTransform="matrix(0.5083,-0.8612,-0.8612,-0.5083,-519.1061,-1606.1514)"
       x1="-1126.311">
      <stop
         id="stop43"
         offset="0"
         stop-color="#8e8e8e" />
      <stop
         id="stop45"
         offset="1"
         stop-color="#353535" />
    </linearGradient>
    <linearGradient
       xlink:show="other"
       id="SVGID_6_"
       xlink:actuate="onLoad"
       xlink:type="simple"
       y2="-1277.2539"
       gradientUnits="userSpaceOnUse"
       x2="-1129.6895"
       y1="-1277.2539"
       gradientTransform="matrix(0.5083,-0.8612,-0.8612,-0.5083,-519.1061,-1606.1514)"
       x1="-1125.7939">
      <stop
         id="stop50"
         offset="0"
         stop-color="#8e8e8e" />
      <stop
         id="stop52"
         offset="1"
         stop-color="#353535" />
    </linearGradient>
    <linearGradient
       inkscape:collect="always"
       xlink:href="#SVGID_7_"
       id="linearGradient3162"
       gradientUnits="userSpaceOnUse"
       gradientTransform="matrix(1,0,0,-1,-56,-110)"
       x1="76.117203"
       y1="-119.1709"
       x2="76.117203"
       y2="-147.17349" />
    <linearGradient
       xlink:show="other"
       id="SVGID_7_"
       xlink:actuate="onLoad"
       xlink:type="simple"
       y2="-147.17349"
       gradientUnits="userSpaceOnUse"
       x2="76.117203"
       y1="-119.1709"
       gradientTransform="matrix(1,0,0,-1,-56,-110)"
       x1="76.117203">
      <stop
         id="stop57"
         offset="0"
         stop-color="#e3e3e3" />
      <stop
         id="stop59"
         offset="1"
         stop-color="#999e9e" />
    </linearGradient>
    <linearGradient
       inkscape:collect="always"
       xlink:href="#SVGID_8_"
       id="linearGradient3159"
       gradientUnits="userSpaceOnUse"
       gradientTransform="matrix(1,0,0,-1,-862.0117,-2494.0264)"
       x1="882.13281"
       y1="-2525.7954"
       x2="882.13281"
       y2="-2505.0859" />
    <linearGradient
       xlink:show="other"
       id="SVGID_8_"
       xlink:actuate="onLoad"
       xlink:type="simple"
       y2="-2505.0859"
       gradientUnits="userSpaceOnUse"
       x2="882.13281"
       y1="-2525.7954"
       gradientTransform="matrix(1,0,0,-1,-862.0117,-2494.0264)"
       x1="882.13281">
      <stop
         id="stop64"
         offset="0"
         stop-color="#e3e3e3" />
      <stop
         id="stop66"
         offset="1"
         stop-color="#404040" />
    </linearGradient>
    <linearGradient
       xlink:show="other"
       id="SVGID_9_"
       xlink:actuate="onLoad"
       xlink:type="simple"
       y2="-2525.4385"
       gradientUnits="userSpaceOnUse"
       x2="882.13177"
       y1="-2505.4443"
       gradientTransform="matrix(1,0,0,-1,-862.0117,-2494.0264)"
       x1="882.13177">
      <stop
         id="stop71"
         offset="0"
         stop-color="#e0e0e0" />
      <stop
         id="stop73"
         offset="0.7473"
         stop-color="#cfcfe3" />
      <stop
         id="stop75"
         offset="1"
         stop-color="#ababbf" />
    </linearGradient>
    <linearGradient
       inkscape:collect="always"
       xlink:href="#SVGID_10_"
       id="linearGradient3155"
       gradientUnits="userSpaceOnUse"
       gradientTransform="matrix(1,0,0,-1,-862.0117,-2494.0264)"
       x1="882.14447"
       y1="-2515.5845"
       x2="882.14447"
       y2="-2505.8901" />
    <linearGradient
       xlink:show="other"
       id="SVGID_10_"
       xlink:actuate="onLoad"
       xlink:type="simple"
       y2="-2505.8901"
       gradientUnits="userSpaceOnUse"
       x2="882.14447"
       y1="-2515.5845"
       gradientTransform="matrix(1,0,0,-1,-862.0117,-2494.0264)"
       x1="882.14447">
      <stop
         id="stop80"
         offset="0"
         stop-color="#e0e0e0" />
      <stop
         id="stop82"
         offset="1"
         stop-color="#ffffff" />
    </linearGradient>
    <linearGradient
       inkscape:collect="always"
       xlink:href="#linearGradient3946"
       id="linearGradient3952"
       x1="20.299999"
       y1="19.577499"
       x2="30.114998"
       y2="19.577499"
       gradientUnits="userSpaceOnUse" />
    <linearGradient
       id="linearGradient3946">
      <stop
         style="stop-color:#000000;stop-opacity:0.375;"
         offset="0"
         id="stop3948" />
      <stop
         style="stop-color:#000000;stop-opacity:0;"
         offset="1"
         id="stop3950" />
    </linearGradient>
    <linearGradient
       inkscape:collect="always"
       xlink:href="#linearGradient3946"
       id="linearGradient4019"
       x1="20.299999"
       y1="19.577499"
       x2="30.114998"
       y2="19.577499"
       gradientUnits="userSpaceOnUse" />
    <linearGradient
       id="linearGradient4021">
      <stop
         style="stop-color:#000000;stop-opacity:0.375;"
         offset="0"
         id="stop4023" />
      <stop
         style="stop-color:#000000;stop-opacity:0;"
         offset="1"
         id="stop4025" />
    </linearGradient>
    <linearGradient
       y2="19.577499"
       x2="30.114998"
       y1="19.577499"
       x1="20.299999"
       gradientUnits="userSpaceOnUse"
       id="linearGradient4044"
       xlink:href="#linearGradient3946"
       inkscape:collect="always" />
    <linearGradient
       inkscape:collect="always"
       xlink:href="#SVGID_1_"
       id="linearGradient3604"
       gradientUnits="userSpaceOnUse"
       gradientTransform="matrix(1,-7.399114e-5,7.399114e-5,1,-702.5742,-2367.8174)"
       x1="724.04492"
       y1="2372.874"
       x2="724.04492"
       y2="2404.3291" />
    <linearGradient
       inkscape:collect="always"
       xlink:href="#SVGID_2_"
       id="linearGradient3606"
       gradientUnits="userSpaceOnUse"
       gradientTransform="matrix(1,-7.399114e-5,7.399114e-5,1,-702.5742,-2367.8174)"
       x1="729.46002"
       y1="2376.0947"
       x2="736.82129"
       y2="2376.0947" />
  </defs>
  <sodipodi:namedview
     pagecolor="#ffffff"
     bordercolor="#666666"
     borderopacity="1"
     objecttolerance="10"
     gridtolerance="10"
     guidetolerance="10"
     inkscape:pageopacity="0"
     inkscape:pageshadow="2"
     inkscape:window-width="1280"
     inkscape:window-height="738"
     id="namedview206"
     showgrid="false"
     inkscape:zoom="5.9318182"
     inkscape:cx="1.8544061"
     inkscape:cy="35.48659"
     inkscape:window-x="-8"
     inkscape:window-y="-8"
     inkscape:window-maximized="1"
     inkscape:current-layer="svg2" />
  <rect
     x="-36.486195"
     y="-35.042339"
     display="none"
     transform="matrix(-0.99696917,0.0777976,-0.0777976,-0.99696917,0,0)"
     width="30.264101"
     height="0.81528819"
     id="rect45"
     style="fill:#87530e;display:none" />
  <rect
     x="-36.484085"
     y="-40.564323"
     display="none"
     transform="matrix(-0.99696917,0.0777976,-0.0777976,-0.99696917,0,0)"
     width="30.260315"
     height="0.81781226"
     id="rect51"
     style="fill:#87530e;display:none" />
  <g
     id="g3631"
     inkscape:export-filename="E:\Documents\ProgramovanieProgramyAskripty\Symphaty0.4Dev\time.png"
     inkscape:export-xdpi="90"
     inkscape:export-ydpi="90">
    <g
       transform="translate(-0.0385149,0.50574716)"
       id="g4">
      <g
         id="g6">
        <g
           id="g8">
          <g
             id="g10">
            <g
               id="g12">
              <rect
                 style="fill:none"
                 y="0"
                 x="0"
                 id="rect14"
                 height="44"
                 width="44" />
            </g>
          </g>
        </g>
      </g>
    </g>
    <g
       transform="translate(-1.2145149,0.50574716)"
       id="g3370">
      <g
         id="g22"
         transform="matrix(1.262017,0,0,1.262017,-4.142251,-3.9354226)">
        <polygon
           style="fill-opacity:0.2"
           id="polygon24"
           points="27.329,5.11 27.076,5.11 8.176,5.113 8.179,37.919 35.117,37.918 35.115,11.852 " />
        <polygon
           style="fill-opacity:0.4"
           id="polygon26"
           points="34.438,12.162 27.076,5.789 8.853,5.79 8.856,37.242 34.439,37.24 " />
      </g>
      <polygon
         style="fill:url(#linearGradient3604)"
         id="polygon33"
         points="27.075,5.036 8.854,5.038 8.857,36.491 34.441,36.49 34.438,11.409 "
         transform="matrix(1.262017,0,0,1.262017,-4.142251,-3.9354226)" />
      <rect
         x="20.268705"
         width="17.151051"
         y="11.72747"
         height="0.80149746"
         id="rect39"
         style="fill:#87530e" />
      <rect
         x="9.3108501"
         width="28.111427"
         y="16.853783"
         height="0.75973421"
         id="rect41"
         style="fill:#87530e" />
      <rect
         x="9.3095884"
         width="28.110167"
         y="21.980097"
         height="0.76099622"
         id="rect43"
         style="fill:#87530e" />
      <rect
         x="9.3108501"
         width="28.111427"
         y="27.107672"
         height="0.76225823"
         id="rect47"
         style="fill:#87530e" />
      <rect
         x="9.3133736"
         width="17.03092"
         y="32.23777"
         height="0.7584722"
         id="rect49"
         style="fill:#87530e" />
      <polygon
         style="fill:#ed8b0a"
         id="polygon53"
         points="34.438,11.409 27.075,5.036 26.773,5.337 27.555,11.657 34.134,11.711 "
         transform="matrix(1.262017,0,0,1.262017,-4.142251,-3.9354226)" />
      <polygon
         style="fill:url(#linearGradient3606)"
         id="polygon60"
         points="27.854,11.355 34.438,11.409 27.075,5.036 "
         transform="matrix(1.262017,0,0,1.262017,-4.142251,-3.9354226)" />
    </g>
    <polygon
       transform="matrix(1.262017,0,0,1.262017,-5.4242838,-3.7668402)"
       points="9.455,5.64 9.457,22.494 33.945,22.492 33.945,11.739 26.9,5.638 "
       id="polygon35"
       style="fill:#ffffff;fill-opacity:0.3" />
    <text
       sodipodi:linespacing="125%"
       id="text3293"
       y="16.314177"
       x="7.9951706"
       style="font-size:16.70286942px;font-style:normal;font-weight:normal;line-height:125%;letter-spacing:0px;word-spacing:0px;fill:#000000;fill-opacity:1;stroke:none;font-family:Sans"
       xml:space="preserve"><tspan
         y="16.314177"
         x="7.9951706"
         id="tspan3295"
         sodipodi:role="line">A</tspan></text>
    <g
       id="g3954"
       transform="matrix(0.7276582,0,0,0.7276582,15.246676,17.986022)">
      <path
         style="fill-opacity:0.4"
         inkscape:connector-curvature="0"
         id="path12"
         d="m 21.729,10.372 c 1.795,-0.626001 3.084,-2.327 3.084,-4.3350003 0,-2.539 -2.058,-4.5949998 -4.597,-4.5949998 -2.537001,0 -4.595,2.0569999 -4.596001,4.5949998 10e-4,1.9829998 1.257999,3.6659993 3.020001,4.3119993 l 0,0.005 c -3.401001,0.423 -6.355,2.273 -8.243001,4.939 l -0.395,-0.231 0.137999,-0.231 L 8.668999,13.961 8.929998,13.514999 8.3099985,13.148 l -1.9790001,3.356 0.619,0.364 0.2969999,-0.504 1.4719997,0.870001 0.14,-0.229999 0.415,0.245 C 8.591,18.752 8.2,20.414 8.2,22.17 c 0,6.581 5.335,11.918 11.917,11.918 6.58,0 11.916,-5.336999 11.916,-11.917998 C 32.034,16.133 27.545,11.16 21.729,10.372 z M 16.336,6.035 c 0.003,-2.1450001 1.737,-3.8780002 3.882,-3.883 2.144,0.002 3.88,1.7379999 3.88,3.883 0,1.651 -1.033001,3.059999 -2.488,3.621 l 0,-1.485 0.355,0 0,-1.931 -3.683,0 0,1.931 0.356,0 0,1.406 C 17.282,8.973 16.336,7.618 16.336,6.035 z" />
      <rect
         style="fill:url(#linearGradient3171)"
         id="rect26"
         height="4.3670001"
         y="6.2399998"
         width="2.9679999"
         x="18.639" />
      <rect
         style="fill:url(#linearGradient3168)"
         id="rect33"
         height="1.931"
         y="5.5250001"
         width="3.6860001"
         x="18.280001" />
      <polygon
         style="fill:url(#SVGID_4_)"
         id="polygon40"
         points="10.468,14.621 9.325,16.559 7.465,15.463 8.609,13.522 " />
      <polygon
         style="fill:url(#SVGID_5_)"
         id="polygon47"
         points="10.14,14.113 8.72,16.519 6.861,15.421 8.281,13.015 " />
      <polygon
         style="fill:url(#SVGID_6_)"
         id="polygon54"
         points="8.93,12.8 6.951,16.154 6.332,15.787 8.311,12.433 " />
      <path
         inkscape:connector-curvature="0"
         style="fill:url(#linearGradient3162)"
         id="path61"
         d="m 20.118,9.539 0,-0.002 C 13.537,9.539 8.201,14.875 8.201,21.456 c 0,6.579 5.335,11.914 11.917,11.914 6.582,0 11.916,-5.335 11.916,-11.914 0,-6.584 -5.336,-11.917 -11.916,-11.917 z" />
      <path
         inkscape:connector-curvature="0"
         style="fill:url(#linearGradient3159)"
         id="path68"
         d="m 9.767,21.455 c 0,-5.719 4.634,-10.353 10.352999,-10.354 l 0,0 0,0.354999 0,0.355 c -5.325,0 -9.639,4.319001 -9.639,9.642001 l 0,0 c 0.008,5.322 4.314,9.628999 9.639,9.638 l 0,0 C 25.445,31.091 29.758,26.776 29.762,21.453 l 0,0 c -0.004,-5.323 -4.32,-9.641001 -9.642001,-9.641001 l 0,0 0,-0.356 0,-0.354 c 5.716,0 10.351,4.637 10.354,10.354001 l 0,0 C 30.47,27.173 25.835,31.81 20.119999,31.81 l 0,0 C 14.401,31.811 9.767,27.173 9.767,21.455 l 0,0 z" />
      <circle
         sodipodi:ry="9.9969997"
         sodipodi:rx="9.9969997"
         sodipodi:cy="21.452999"
         sodipodi:cx="20.120001"
         style="fill:url(#SVGID_9_)"
         id="circle77"
         cy="21.452999"
         cx="20.120001"
         r="9.9969997"
         d="m 30.117001,21.452999 c 0,5.521191 -4.47581,9.997 -9.997,9.997 -5.521191,0 -9.997,-4.475809 -9.997,-9.997 0,-5.52119 4.475809,-9.997 9.997,-9.997 5.52119,0 9.997,4.47581 9.997,9.997 z" />
      <path
         inkscape:connector-curvature="0"
         style="fill:url(#linearGradient3155)"
         id="path84"
         d="m 29.727,21.6 c 0,-5.353 -4.295,-9.692 -9.593001,-9.694 -5.3,10e-4 -9.595,4.342001 -9.595,9.694 l 19.188001,0 z" />
      <g
         id="g86"
         style="fill:url(#linearGradient3952);fill-opacity:1">
        <linearGradient
           xlink:show="other"
           id="SVGID_11_"
           xlink:actuate="onLoad"
           xlink:type="simple"
           y2="775.57709"
           gradientUnits="userSpaceOnUse"
           x2="142.1152"
           y1="775.57709"
           gradientTransform="translate(-112,-756)"
           x1="132.2998">
          <stop
             id="stop89"
             offset="0"
             stop-color="#f90000"
             style="fill-opacity:1;fill:url(#linearGradient3952)" />
          <stop
             id="stop91"
             offset="1"
             stop-color="#ababbf"
             style="fill-opacity:1;fill:url(#linearGradient3952)" />
        </linearGradient>
        <path
           inkscape:connector-curvature="0"
           style="fill:url(#linearGradient4044);fill-opacity:1"
           id="path93"
           d="m 20.3,11.467 0,11.331 7.625999,4.89 c 1.368,-1.711 2.188999,-3.875 2.188999,-6.231 C 30.113,15.996 25.736,11.565 20.3,11.467 z" />
      </g>
      <path
         style="fill:#1c1c1c;fill-opacity:0.8"
         inkscape:connector-curvature="0"
         id="path95"
         d="m 16.213,18.745 c 0,-2.240998 1.816,-4.058 4.058,-4.058 l 0,0 c 2.237999,0 4.055,1.816 4.055,4.058 l 0,0 c -0.002,2.237 -1.816,4.053 -4.055,4.053 l 0,0 c -2.245,0 -4.058,-1.816 -4.058,-4.053 l 0,0 z m 0.356,0 c 0.003,2.041001 1.655,3.694001 3.702,3.698 l 0,0 c 2.04,-0.004 3.695,-1.653999 3.697,-3.698 l 0,0 c -0.002,-2.041999 -1.653,-3.697999 -3.697,-3.700999 l 0,0 C 18.225,15.048 16.573,16.703 16.569,18.745 l 0,0 z" />
    </g>
  </g>
</svg>
